<?xml version="1.0" encoding="UTF-8"?>
<svg width="1000px" height="130px" viewBox="0 0 1000 130" version="1.1" xmlns="http://www.w3.org/2000/svg" xmlns:xlink="http://www.w3.org/1999/xlink">
    <!-- Generator: Sketch 64 (93537) - https://sketch.com -->
    <title>substrate_ final dark</title>
    <desc>Created with Sketch.</desc>
    <g id="Branding" stroke="none" stroke-width="1" fill="none" fill-rule="evenodd">
        <g id="2Kx1K-Copy" transform="translate(-500.000000, -435.000000)" fill-rule="nonzero">
            <g id="substrate_-final-dark" transform="translate(500.000000, 435.000000)">
                <path d="M45.7627692,129.487836 C53.50546,129.487836 60.2080878,128.274429 65.8706526,125.847615 C71.5332175,123.420802 75.8668131,120.069488 78.8714393,115.793674 C81.8760656,111.517859 83.3783787,106.606451 83.3783787,101.059449 C83.3783787,94.2412583 81.6449405,88.8098185 78.1780641,84.7651293 C74.7111876,80.7204401 70.6087171,77.8024858 65.8706526,76.0112663 C61.1325882,74.2200468 55.0655544,72.4577179 47.6695513,70.7242797 C40.8513609,69.2219665 35.8532807,67.7196534 32.6753106,66.2173403 C29.4973405,64.7150272 27.9083555,62.4615575 27.9083555,59.4569312 C27.9083555,56.7989926 28.7750746,54.7477573 30.5085128,53.3032255 C32.241951,51.8586936 34.7843271,51.1364277 38.135641,51.1364277 C42.4114553,51.1364277 45.9650037,52.2631626 48.7962861,54.5166323 C51.6275685,56.7701019 53.4476787,59.8614001 54.2566165,63.7905268 L54.2566165,63.7905268 L81.9916282,63.7905268 C80.1426274,53.736585 75.5490161,45.6472067 68.2107942,39.5223916 C60.8725724,33.3975765 51.0786464,30.335169 38.8290163,30.335169 C26.8105113,30.335169 17.5077261,33.0219982 10.9206608,38.3956567 C4.33359557,43.7693152 1.04006294,50.7897401 1.04006294,59.4569312 C1.04006294,66.159559 2.71571989,71.4465456 6.0670338,75.317891 C9.4183477,79.1892364 13.4052556,81.9916282 18.0277576,83.7250664 C22.6502595,85.4585046 28.5439495,87.0763803 35.7088275,88.5786934 C42.8737055,90.1965691 48.0451295,91.7277729 51.2230996,93.1723047 C54.4010697,94.6168366 55.9900547,97.0147595 55.9900547,100.366073 C55.9900547,102.908449 55.1233356,104.959685 53.3898974,106.519779 C51.6564592,108.079873 49.1140831,108.859921 45.7627692,108.859921 C40.9091422,108.859921 36.9511249,107.762076 33.8887173,105.566388 C30.8263098,103.3707 29.0639809,100.19273 28.6017308,96.0324778 L28.6017308,96.0324778 L0,96.0324778 C1.73343823,106.779795 6.52928399,115.042517 14.3875373,120.820644 C22.2457906,126.598772 32.7042012,129.487836 45.7627692,129.487836 Z M137.001961,129.314492 C144.282401,129.314492 150.667232,127.638835 156.156453,124.287521 C161.645674,120.936207 165.777035,116.429268 168.550537,110.766703 L168.550537,110.766703 L168.550537,128.274429 L198.365674,128.274429 L198.365674,31.5485757 L168.550537,31.5485757 L168.550537,82.8583473 C168.550537,89.9076627 166.817098,95.3391025 163.350222,99.1526666 C159.883345,102.966231 155.145281,104.873013 149.136028,104.873013 C143.357901,104.873013 138.76429,103.052903 135.355195,99.4126823 C131.946099,95.7724621 130.241552,90.6588193 130.241552,84.071754 L130.241552,84.071754 L130.241552,31.5485757 L100.773102,31.5485757 L100.773102,87.7119743 C100.773102,100.65498 104.037744,110.824484 110.567028,118.220487 C117.096312,125.61649 125.907956,129.314492 137.001961,129.314492 Z M281.457706,129.487836 C289.431522,129.487836 296.567509,127.494382 302.865668,123.507474 C309.163827,119.520566 314.133017,113.771329 317.773237,106.259763 C321.413457,98.7481977 323.233567,89.965444 323.233567,79.9115023 C323.233567,69.741998 321.413457,60.9303537 317.773237,53.4765693 C314.133017,46.0227849 309.163827,40.3024388 302.865668,36.3155309 C296.567509,32.3286229 289.431522,30.335169 281.457706,30.335169 C274.061703,30.335169 267.705763,32.0108259 262.389886,35.3621398 C257.074008,38.7134537 253.202663,43.2781744 250.775849,49.0563018 L250.775849,49.0563018 L250.775849,0 L221.134056,0 L221.134056,128.274429 L250.775849,128.274429 L250.775849,110.766703 C253.202663,116.54483 257.074008,121.109551 262.389886,124.460865 C267.705763,127.812179 274.061703,129.487836 281.457706,129.487836 Z M271.923796,103.486262 C265.683418,103.486262 260.569775,101.348355 256.582867,97.0725407 C252.59596,92.7967264 250.602506,87.0763803 250.602506,79.9115023 C250.602506,72.6310617 252.59596,66.8818249 256.582867,62.6637919 C260.569775,58.4457589 265.683418,56.3367424 271.923796,56.3367424 C278.279736,56.3367424 283.393379,58.4168683 287.264724,62.57712 C291.136069,66.7373718 293.071742,72.5154992 293.071742,79.9115023 C293.071742,87.3075054 291.136069,93.0856328 287.264724,97.2458846 C283.393379,101.406136 278.279736,103.486262 271.923796,103.486262 Z M383.097527,129.487836 C390.840218,129.487836 397.542846,128.274429 403.20541,125.847615 C408.867975,123.420802 413.201571,120.069488 416.206197,115.793674 C419.210823,111.517859 420.713137,106.606451 420.713137,101.059449 C420.713137,94.2412583 418.979698,88.8098185 415.512822,84.7651293 C412.045945,80.7204401 407.943475,77.8024858 403.20541,76.0112663 C398.467346,74.2200468 392.400312,72.4577179 385.004309,70.7242797 C378.186119,69.2219665 373.188038,67.7196534 370.010068,66.2173403 C366.832098,64.7150272 365.243113,62.4615575 365.243113,59.4569312 C365.243113,56.7989926 366.109832,54.7477573 367.843271,53.3032255 C369.576709,51.8586936 372.119085,51.1364277 375.470399,51.1364277 C379.746213,51.1364277 383.299761,52.2631626 386.131044,54.5166323 C388.962326,56.7701019 390.782436,59.8614001 391.591374,63.7905268 L391.591374,63.7905268 L419.326386,63.7905268 C417.477385,53.736585 412.883774,45.6472067 405.545552,39.5223916 C398.20733,33.3975765 388.413404,30.335169 376.163774,30.335169 C364.145269,30.335169 354.842484,33.0219982 348.255419,38.3956567 C341.668353,43.7693152 338.374821,50.7897401 338.374821,59.4569312 C338.374821,66.159559 340.050478,71.4465456 343.401792,75.317891 C346.753106,79.1892364 350.740013,81.9916282 355.362515,83.7250664 C359.985017,85.4585046 365.878707,87.0763803 373.043585,88.5786934 C380.208463,90.1965691 385.379887,91.7277729 388.557857,93.1723047 C391.735828,94.6168366 393.324813,97.0147595 393.324813,100.366073 C393.324813,102.908449 392.458093,104.959685 390.724655,106.519779 C388.991217,108.079873 386.448841,108.859921 383.097527,108.859921 C378.2439,108.859921 374.285883,107.762076 371.223475,105.566388 C368.161068,103.3707 366.398739,100.19273 365.936489,96.0324778 L365.936489,96.0324778 L337.334758,96.0324778 C339.068196,106.779795 343.864042,115.042517 351.722295,120.820644 C359.580548,126.598772 370.038959,129.487836 383.097527,129.487836 Z M494.271258,128.274429 L494.271258,102.792887 L484.910692,102.792887 C481.21269,102.792887 478.583642,102.04173 477.023548,100.539417 C475.463453,99.0371041 474.683406,96.3791654 474.683406,92.5656013 L474.683406,92.5656013 L474.683406,56.5100862 L494.097914,56.5100862 L494.097914,31.5485757 L474.683406,31.5485757 L474.683406,7.80047202 L445.041613,7.80047202 L445.041613,31.5485757 L432.040826,31.5485757 L432.040826,56.5100862 L445.041613,56.5100862 L445.041613,92.0455699 C445.041613,104.988575 448.190692,114.26247 454.488851,119.867253 C460.78701,125.472037 469.598654,128.274429 480.923784,128.274429 L480.923784,128.274429 L494.271258,128.274429 Z M542.867869,128.274429 L542.867869,84.2450979 C542.867869,76.271282 545.034667,70.6087171 549.368263,67.2574032 C553.701858,63.9060893 559.797783,62.2304324 567.656036,62.2304324 L567.656036,62.2304324 L576.149883,62.2304324 L576.149883,30.5085128 C569.331693,30.5085128 563.004644,32.241951 557.168735,35.7088275 C551.332826,39.1757039 546.565871,43.8559872 542.867869,49.7496771 L542.867869,49.7496771 L542.867869,31.5485757 L513.226076,31.5485757 L513.226076,128.274429 L542.867869,128.274429 Z M627.69334,129.487836 C635.089343,129.487836 641.445283,127.812179 646.76116,124.460865 C652.077037,121.109551 656.006164,116.54483 658.54854,110.766703 L658.54854,110.766703 L658.54854,128.274429 L688.01699,128.274429 L688.01699,31.5485757 L658.54854,31.5485757 L658.54854,49.0563018 C656.006164,43.2781744 652.077037,38.7134537 646.76116,35.3621398 C641.445283,32.0108259 635.089343,30.335169 627.69334,30.335169 C619.719524,30.335169 612.583536,32.3286229 606.285378,36.3155309 C599.987219,40.3024388 595.018029,46.0227849 591.377809,53.4765693 C587.737589,60.9303537 585.917478,69.741998 585.917478,79.9115023 C585.917478,89.965444 587.737589,98.7481977 591.377809,106.259763 C595.018029,113.771329 599.987219,119.520566 606.285378,123.507474 C612.583536,127.494382 619.719524,129.487836 627.69334,129.487836 Z M637.22725,103.486262 C630.87131,103.486262 625.757667,101.406136 621.886322,97.2458846 C618.014976,93.0856328 616.079304,87.3075054 616.079304,79.9115023 C616.079304,72.5154992 618.014976,66.7373718 621.886322,62.57712 C625.757667,58.4168683 630.87131,56.3367424 637.22725,56.3367424 C643.467628,56.3367424 648.58127,58.4457589 652.568178,62.6637919 C656.555086,66.8818249 658.54854,72.6310617 658.54854,79.9115023 C658.54854,87.0763803 656.555086,92.7967264 652.568178,97.0725407 C648.58127,101.348355 643.467628,103.486262 637.22725,103.486262 Z M765.56202,128.274429 L765.56202,102.792887 L756.201453,102.792887 C752.503452,102.792887 749.874404,102.04173 748.314309,100.539417 C746.754215,99.0371041 745.974168,96.3791654 745.974168,92.5656013 L745.974168,92.5656013 L745.974168,56.5100862 L765.388676,56.5100862 L765.388676,31.5485757 L745.974168,31.5485757 L745.974168,7.80047202 L716.332374,7.80047202 L716.332374,31.5485757 L703.331587,31.5485757 L703.331587,56.5100862 L716.332374,56.5100862 L716.332374,92.0455699 C716.332374,104.988575 719.481453,114.26247 725.779612,119.867253 C732.077771,125.472037 740.889415,128.274429 752.214545,128.274429 L752.214545,128.274429 L765.56202,128.274429 Z M828.19948,129.487836 C836.288859,129.487836 843.627081,127.956632 850.214146,124.894224 C856.801211,121.831817 862.232651,117.613784 866.508465,112.240125 C870.78428,106.866467 873.557781,100.770542 874.828969,93.9523519 L874.828969,93.9523519 L843.453737,93.9523519 C842.529236,97.4192284 840.622454,100.250511 837.733391,102.446199 C834.844327,104.641888 831.204107,105.739732 826.81273,105.739732 C821.612415,105.739732 817.336601,104.150747 813.985287,100.972777 C810.633973,97.7948067 808.784972,92.5656013 808.438285,85.2851608 L808.438285,85.2851608 L875.522344,85.2851608 C876.100157,82.3960971 876.389063,79.7381585 876.389063,77.3113449 C876.389063,68.0663411 874.395609,59.8902908 870.408701,52.783194 C866.421793,45.6760973 860.788119,40.1579856 853.507679,36.228859 C846.227238,32.2997323 837.791172,30.335169 828.19948,30.335169 C818.723351,30.335169 810.287285,32.3286229 802.891282,36.3155309 C795.495279,40.3024388 789.746042,46.0227849 785.643572,53.4765693 C781.541102,60.9303537 779.489866,69.741998 779.489866,79.9115023 C779.489866,89.965444 781.569992,98.7481977 785.730244,106.259763 C789.890496,113.771329 795.639732,119.520566 802.977954,123.507474 C810.316176,127.494382 818.723351,129.487836 828.19948,129.487836 Z M846.400582,72.8044056 L808.611629,72.8044056 C809.073879,66.5640279 811.096223,61.8259634 814.678662,58.5902121 C818.261101,55.3544607 822.768041,53.736585 828.19948,53.736585 C833.399795,53.736585 837.762281,55.3255701 841.286939,58.5035402 C844.811597,61.6815103 846.516144,66.4484654 846.400582,72.8044056 L846.400582,72.8044056 Z" id="substrate" fill="#111111"></path>
                <polygon id="_" fill="#18FFB2" points="999.563022 129.454564 999.563022 100.506146 892.263196 100.506146 892.263196 129.454564"></polygon>
            </g>
        </g>
    </g>
</svg>